<?xml version="1.0" encoding="UTF-8"?>
<svg width="70px" height="55px" viewBox="0 0 70 55" version="1.1" xmlns="http://www.w3.org/2000/svg" xmlns:xlink="http://www.w3.org/1999/xlink">
    <!-- Generator: Sketch 43.2 (39069) - http://www.bohemiancoding.com/sketch -->
    <title>Shape</title>
    <desc>Created with Sketch.</desc>
    <defs></defs>
    <g id="Page-1" stroke="none" stroke-width="1" fill="none" fill-rule="evenodd">
        <path d="M32.35,22.8 L38.7,22.8 C38.7,26.95 44.9,29.05 44.9,34.3 C44.9,40.6 40.8,43.75 35.55,43.75 C29.2,43.75 25.1,38.5 26.15,33.25 L32.35,33.25 C32.35,36.4 33.4,37.45 35.55,37.45 C37.65,37.45 38.7,36.4 38.7,34.3 C38.7,31.15 32.35,30.1 32.35,22.8 Z M35.55,11.25 C37.95,11.25 39.75,13 39.75,15.45 C39.75,17.9 37.95,19.65 35.55,19.65 C33.1,19.65 31.3,17.9 31.3,15.45 C31.3,13 33.1,11.25 35.55,11.25 Z M4,0 C1.3,0 0,1.3 0,4 L0,51 C0,53.7 1.3,55 4,55 L66,55 C68.7,55 70,53.7 70,51 L70,4 C70,1.3 68.7,0 66,0 L4,0 Z M5,5 L10,5 L10,10 L5,10 L5,5 Z M5,15 L10,15 L10,20 L5,20 L5,15 Z M5,25 L10,25 L10,30 L5,30 L5,25 Z M5,35 L10,35 L10,40 L5,40 L5,35 Z M5,45 L10,45 L10,50 L5,50 L5,45 Z M60,5 L65,5 L65,10 L60,10 L60,5 Z M60,15 L65,15 L65,20 L60,20 L60,15 Z M60,25 L65,25 L65,30 L60,30 L60,25 Z M60,35 L65,35 L65,40 L60,40 L60,35 Z M60,45 L65,45 L65,50 L60,50 L60,45 Z" id="Shape" fill="#631630" fill-rule="nonzero" transform="translate(35.000000, 27.500000) scale(-1, 1) rotate(-180.000000) translate(-35.000000, -27.500000) "></path>
    </g>
</svg>